<?xml version="1.0" standalone="no"?>
<!DOCTYPE svg PUBLIC "-//W3C//DTD SVG 20010904//EN"
 "http://www.w3.org/TR/2001/REC-SVG-20010904/DTD/svg10.dtd">
<svg version="1.0" xmlns="http://www.w3.org/2000/svg"
 width="555.000000pt" height="260.000000pt" viewBox="0 0 555.000000 260.000000"
 preserveAspectRatio="xMidYMid meet">

<g transform="translate(0.000000,260.000000) scale(0.100000,-0.100000)"
fill="#000000" stroke="none">
<path d="M0 2045 l0 -555 173 -3 172 -3 -172 -2 -173 -2 0 -50 0 -50 168 -3
167 -3 -167 -2 -168 -2 0 -50 0 -50 168 -3 167 -3 -167 -2 -168 -2 0 -110 0
-110 168 -3 167 -3 -167 -2 -168 -2 0 -515 0 -515 2775 0 2775 0 0 515 0 515
-167 3 -168 3 168 2 167 2 0 110 0 110 -167 3 -168 3 168 2 167 2 0 50 0 50
-167 3 -168 3 168 2 167 2 0 50 0 50 -172 3 -173 3 173 2 172 2 0 555 0 555
-185 0 c-178 0 -185 -1 -185 -20 0 -17 -7 -20 -45 -20 -38 0 -45 3 -45 20 0
13 -7 20 -19 20 -16 0 -20 -8 -23 -37 -3 -38 -3 -38 -50 -41 l-48 -3 0 40 c0
34 -3 41 -20 41 -13 0 -20 -7 -20 -20 0 -17 -7 -20 -45 -20 -38 0 -45 3 -45
20 0 15 -7 20 -25 20 -18 0 -25 -5 -25 -20 0 -17 -7 -20 -45 -20 -38 0 -45 3
-45 20 0 13 -7 20 -20 20 -17 0 -20 -7 -20 -40 l0 -40 -50 0 -50 0 0 40 c0 33
-3 40 -20 40 -13 0 -20 -7 -20 -20 0 -17 -7 -20 -45 -20 -39 0 -45 3 -45 21 0
16 -5 20 -27 17 -17 -2 -28 -9 -28 -18 0 -11 -13 -16 -47 -18 -43 -3 -48 -1
-48 17 0 14 -6 21 -20 21 -17 0 -20 -7 -20 -40 l0 -40 -50 0 -50 0 0 40 c0 34
-3 40 -20 40 -14 0 -20 -6 -18 -17 2 -15 -6 -19 -44 -21 -43 -3 -48 -1 -48 17
0 28 -36 28 -43 1 -4 -16 -14 -20 -51 -20 -39 0 -46 3 -46 20 0 13 -7 20 -20
20 -17 0 -20 -7 -20 -40 l0 -40 -50 0 -50 0 0 40 c0 29 -4 40 -15 40 -8 0 -15
-9 -15 -20 0 -17 -7 -20 -50 -20 -43 0 -50 3 -50 20 0 20 -7 20 -785 20 -778
0 -785 0 -785 -20 0 -17 -7 -20 -45 -20 -38 0 -45 3 -45 20 0 13 -7 20 -19 20
-16 0 -20 -8 -23 -37 -3 -38 -3 -38 -50 -41 l-48 -3 0 40 c0 34 -3 41 -20 41
-14 0 -20 -7 -20 -21 0 -18 -5 -20 -47 -17 -35 2 -48 7 -48 18 0 8 -10 16 -22
18 -18 3 -23 -2 -23 -17 0 -18 -6 -21 -45 -21 -38 0 -45 3 -45 20 0 13 -7 20
-20 20 -17 0 -20 -7 -20 -40 l0 -40 -50 0 -50 0 0 40 c0 33 -3 40 -20 40 -13
0 -20 -7 -20 -20 0 -17 -7 -20 -45 -20 -38 0 -45 3 -45 20 0 15 -7 20 -26 20
-17 0 -28 -6 -31 -20 -4 -16 -14 -20 -49 -20 -37 0 -44 3 -44 20 0 13 -7 20
-20 20 -17 0 -20 -7 -20 -40 l0 -40 -50 0 -50 0 0 40 c0 33 -3 40 -20 40 -13
0 -20 -7 -20 -20 0 -17 -7 -20 -45 -20 -38 0 -45 3 -45 20 0 13 -7 20 -19 20
-10 0 -21 -9 -24 -20 -4 -16 -14 -20 -51 -20 -39 0 -46 3 -46 20 0 13 -7 20
-20 20 -17 0 -20 -7 -20 -40 l0 -40 -50 0 -50 0 0 40 c0 30 -4 40 -16 40 -9 0
-18 -9 -21 -20 -4 -16 -14 -20 -49 -20 -37 0 -44 3 -44 20 0 19 -7 20 -205 20
l-205 0 0 -555z m2925 395 l-16 -30 -122 0 -123 0 -17 30 -18 30 156 0 156 0
-16 -30z m-725 0 c0 -5 -4 -10 -10 -10 -5 0 -10 5 -10 10 0 6 5 10 10 10 6 0
10 -4 10 -10z m1190 0 c0 -5 -4 -10 -10 -10 -5 0 -10 5 -10 10 0 6 5 10 10 10
6 0 10 -4 10 -10z m-1280 -63 c0 -1 -30 -32 -67 -67 l-68 -65 65 68 c60 62 70
72 70 64z m1490 -62 c35 -36 62 -65 59 -65 -2 0 -34 29 -69 65 -35 36 -62 65
-59 65 2 0 34 -29 69 -65z m120 10 l60 -55 -33 0 c-25 0 -46 13 -92 55 l-60
54 33 1 c25 0 45 -11 92 -55z m151 0 l58 -55 -32 0 c-24 1 -46 14 -92 55 l-60
55 34 0 c28 0 45 -10 92 -55z m164 0 l60 -54 -33 -1 c-28 0 -44 10 -90 55
l-57 55 30 0 c22 0 45 -14 90 -55z m145 15 c47 -39 49 -40 126 -40 l79 0 215
-217 215 -218 -215 213 -215 212 -73 0 c-46 0 -71 -4 -67 -10 4 -6 -7 -10 -25
-10 -25 0 -44 12 -88 55 -56 54 -57 55 -28 55 19 0 44 -14 76 -40z m-2035 -40
c0 -27 -3 -50 -7 -50 -5 0 -8 23 -8 50 0 28 3 50 8 50 4 0 7 -22 7 -50z m271
36 c3 -8 12 -12 20 -9 10 4 14 -3 14 -26 0 -21 -5 -31 -15 -31 -8 0 -15 5 -15
10 0 6 -7 10 -15 10 -10 0 -15 10 -15 30 0 31 16 41 26 16z m64 -36 c0 -46 -2
-50 -22 -49 -19 1 -20 2 -5 6 16 4 18 13 15 49 -2 24 0 44 4 44 5 0 8 -22 8
-50z m946 36 c3 -8 12 -12 20 -9 10 4 14 -3 14 -26 0 -35 -20 -43 -21 -8 0 12
-3 16 -6 10 -10 -26 -33 -13 -33 17 0 31 16 41 26 16z m-1216 -36 c0 -27 -3
-30 -30 -30 -27 0 -30 3 -30 30 0 27 3 30 30 30 27 0 30 -3 30 -30z m120 15
c0 -10 -10 -15 -30 -15 -20 0 -30 5 -30 15 0 10 10 15 30 15 20 0 30 -5 30
-15z m890 -15 c0 -27 -3 -30 -30 -30 -25 0 -30 4 -30 23 0 30 7 37 37 37 19 0
23 -5 23 -30z m120 0 c0 -27 -3 -30 -30 -30 -38 0 -40 20 -2 21 27 1 27 1 3 8
-37 10 -38 31 -2 31 28 0 31 -3 31 -30z m-1900 -10 c0 -13 -7 -20 -19 -20 -22
0 -35 15 -26 30 12 19 45 11 45 -10z m70 0 c0 -13 -7 -20 -20 -20 -13 0 -20 7
-20 20 0 13 7 20 20 20 13 0 20 -7 20 -20z m70 0 c0 -13 -7 -20 -20 -20 -13 0
-20 7 -20 20 0 13 7 20 20 20 13 0 20 -7 20 -20z m73 0 c4 -16 0 -20 -19 -20
-17 0 -24 6 -24 20 0 13 7 20 19 20 10 0 21 -9 24 -20z m77 0 c0 -14 -7 -20
-23 -20 -16 0 -23 6 -23 20 0 14 7 20 23 20 16 0 23 -6 23 -20z m70 0 c0 -13
-7 -20 -20 -20 -13 0 -20 7 -20 20 0 13 7 20 20 20 13 0 20 -7 20 -20z m70 0
c0 -13 -7 -20 -20 -20 -13 0 -20 7 -20 20 0 13 7 20 20 20 13 0 20 -7 20 -20z
m73 0 c4 -16 0 -20 -19 -20 -17 0 -24 6 -24 20 0 13 7 20 19 20 10 0 21 -9 24
-20z m137 6 c0 -2 -8 -10 -17 -17 -16 -13 -17 -12 -4 4 13 16 21 21 21 13z
m-840 -9 c0 -1 -104 -106 -232 -232 -128 -127 -230 -227 -228 -223 7 11 453
458 457 458 2 0 3 -1 3 -3z m1090 -7 c0 -5 -13 -10 -30 -10 -16 0 -30 5 -30
10 0 6 14 10 30 10 17 0 30 -4 30 -10z m490 -47 l0 -32 78 -4 c42 -1 1 -4 -93
-5 l-170 -2 0 38 -1 37 93 0 93 0 0 -32z m118 30 c-15 -2 -42 -2 -60 0 -18 2
-6 4 27 4 33 0 48 -2 33 -4z m-661 -9 c-3 -3 -12 -4 -19 -1 -8 3 -5 6 6 6 11
1 17 -2 13 -5z m146 -1 c-7 -2 -21 -2 -30 0 -10 3 -4 5 12 5 17 0 24 -2 18 -5z
m1000 0 c-7 -2 -19 -2 -25 0 -7 3 -2 5 12 5 14 0 19 -2 13 -5z m60 0 c-7 -2
-21 -2 -30 0 -10 3 -4 5 12 5 17 0 24 -2 18 -5z m-1910 -10 c-7 -2 -19 -2 -25
0 -7 3 -2 5 12 5 14 0 19 -2 13 -5z m244 1 c-3 -3 -12 -4 -19 -1 -8 3 -5 6 6
6 11 1 17 -2 13 -5z m130 0 c-3 -3 -12 -4 -19 -1 -8 3 -5 6 6 6 11 1 17 -2 13
-5z m1062 -8 c9 -11 9 -16 -1 -22 -7 -4 -10 -4 -6 1 4 4 3 14 -3 22 -6 7 -9
13 -6 13 2 0 10 -6 16 -14z m808 8 c-3 -3 -12 -4 -19 -1 -8 3 -5 6 6 6 11 1
17 -2 13 -5z m260 0 c-3 -3 -12 -4 -19 -1 -8 3 -5 6 6 6 11 1 17 -2 13 -5z
m553 -249 c244 -244 257 -255 295 -257 l40 -1 -39 -4 -39 -4 -261 260 c-144
144 -259 261 -256 261 3 0 120 -115 260 -255z m-3380 242 c0 -2 -15 -16 -32
-33 l-33 -29 29 33 c28 30 36 37 36 29z m1 -71 c-43 -43 -71 -63 -87 -63 -20
0 -22 2 -13 13 6 8 8 14 4 14 -5 0 0 9 10 20 12 14 22 17 34 10 20 -10 27 -6
61 35 l25 30 -31 -27 c-41 -38 -55 -36 -19 2 16 17 35 28 42 26 7 -3 15 -1 19
5 3 6 9 8 12 4 3 -3 -22 -34 -57 -69z m706 37 c-20 -2 -52 -2 -70 0 -17 2 0 4
38 4 39 0 53 -2 32 -4z m518 -34 c5 -13 1 -27 -8 -37 -13 -13 -20 -13 -46 -2
-17 7 -40 10 -51 7 -14 -4 -20 0 -20 13 0 13 6 16 26 12 18 -3 30 0 36 12 13
24 55 21 63 -5z m113 -11 c22 -22 13 -28 -38 -28 -35 0 -50 4 -50 13 0 8 3 17
7 20 11 12 68 8 81 -5z m552 2 c0 -5 -2 -10 -4 -10 -3 0 -8 5 -11 10 -3 6 -1
10 4 10 6 0 11 -4 11 -10z m160 6 c0 -2 -7 -6 -15 -10 -8 -3 -15 -1 -15 4 0 6
7 10 15 10 8 0 15 -2 15 -4z m-90 -26 c0 -5 -8 -10 -17 -10 -15 0 -16 2 -3 10
19 12 20 12 20 0z m-135 -20 c13 0 26 5 28 10 3 6 4 5 3 -2 -2 -7 -15 -13 -31
-13 -16 0 -29 6 -31 13 -1 7 0 8 3 2 2 -5 15 -10 28 -10z m300 -20 c21 -22 37
-40 34 -40 -3 0 -23 18 -44 40 -21 22 -37 40 -34 40 3 0 23 -18 44 -40z m-108
24 c-3 -3 -12 -4 -19 -1 -8 3 -5 6 6 6 11 1 17 -2 13 -5z m-999 -24 c-7 -10
-14 -17 -17 -15 -4 4 18 35 25 35 2 0 -1 -9 -8 -20z m82 -5 c0 -8 -5 -15 -11
-15 -5 0 -7 5 -4 10 13 21 -10 9 -45 -22 l-35 -33 34 38 c36 39 61 48 61 22z
m148 8 c-54 -2 -98 -8 -98 -13 0 -6 -9 -10 -20 -10 -11 0 -20 7 -20 15 0 13
19 15 118 13 l117 -2 -97 -3z m852 -28 c19 -19 32 -35 29 -35 -3 0 -20 16 -39
35 -19 19 -32 35 -29 35 3 0 20 -16 39 -35z m-2230 22 c0 -1 -57 -58 -127
-127 l-128 -125 125 128 c116 118 130 132 130 124z m3215 -47 c16 -16 26 -32
24 -35 -5 -5 -69 50 -69 59 0 14 18 4 45 -24z m35 0 c18 -16 30 -33 27 -37 -8
-7 -67 45 -67 59 0 12 4 10 40 -22z m65 -39 c-7 -6 -65 50 -65 63 0 5 16 -5
35 -24 19 -18 32 -36 30 -39z m101 28 c39 -41 23 -46 -22 -7 -31 26 -34 27
-15 5 14 -15 22 -30 19 -33 -4 -3 -19 8 -34 25 -15 17 -32 31 -37 31 -6 0 0
-11 13 -25 13 -14 19 -25 14 -25 -6 0 -22 13 -37 28 l-28 29 50 0 c42 1 53 -4
77 -28z m-1095 4 c13 -16 12 -17 -3 -4 -17 13 -22 21 -14 21 2 0 10 -8 17 -17z
m46 -29 c-3 -3 -12 -4 -19 -1 -8 3 -5 6 6 6 11 1 17 -2 13 -5z m361 -1 c-65
-2 -171 -2 -235 0 -65 1 -12 3 117 3 129 0 182 -2 118 -3z m259 1 c-3 -3 -12
-4 -19 -1 -8 3 -5 6 6 6 11 1 17 -2 13 -5z m-2872 -124 c-80 -80 -126 -120
-140 -119 -20 2 -20 2 1 6 11 2 72 55 134 118 63 63 117 115 120 115 2 0 -49
-54 -115 -120z m663 63 c2 -25 8 -33 23 -33 10 0 19 7 19 15 0 9 9 15 23 14
16 -1 18 -2 5 -6 -10 -2 -18 -11 -18 -19 0 -9 -11 -14 -30 -14 -28 0 -30 3
-30 36 0 36 0 36 -40 32 -22 -2 -40 0 -40 5 0 4 19 7 43 5 39 -3 42 -5 45 -35z
m229 -30 c-2 -16 -4 -5 -4 22 0 28 2 40 4 28 2 -13 2 -35 0 -50z m2336 36 c17
-16 28 -31 25 -34 -3 -3 -12 0 -20 7 -7 7 -25 22 -38 33 l-25 20 24 -28 c32
-36 17 -35 -25 2 l-33 30 31 -1 c18 -1 42 -12 61 -29z m37 -4 c19 -19 29 -35
24 -35 -6 0 -25 16 -44 35 -19 19 -29 35 -24 35 6 0 25 -16 44 -35z m40 0 c19
-19 29 -35 24 -35 -6 0 -25 16 -44 35 -19 19 -29 35 -24 35 6 0 25 -16 44 -35z
m35 5 c16 -16 31 -28 33 -25 3 2 -6 13 -19 24 -13 11 -21 22 -17 26 3 4 24 -9
45 -28 l38 -36 -32 1 c-22 1 -42 11 -64 35 -18 18 -28 33 -23 33 6 0 23 -13
39 -30z m-3008 -17 c-3 -10 -5 -4 -5 12 0 17 2 24 5 18 2 -7 2 -21 0 -30z
m179 4 c1 -11 0 -12 -3 -3 -2 8 -17 17 -34 20 -28 6 -28 6 3 4 23 -2 33 -8 34
-21z m251 1 c-3 -8 -6 -5 -6 6 -1 11 2 17 5 13 3 -3 4 -12 1 -19z m180 -35
c-3 -10 -5 -2 -5 17 0 19 2 27 5 18 2 -10 2 -26 0 -35z m-1003 -54 c-38 -38
-70 -66 -73 -64 -2 3 5 16 17 28 12 13 20 26 16 29 -3 3 2 5 12 5 9 -1 19 5
22 13 5 13 3 13 -11 1 -19 -15 -23 -1 -5 17 15 15 32 16 23 2 -9 -14 8 -13 23
2 17 17 15 33 -3 18 -12 -10 -15 -10 -15 1 0 7 -16 -2 -35 -21 -39 -38 -48
-31 -13 9 21 24 21 24 -8 -1 -40 -37 -55 -36 -21 0 24 25 35 29 83 29 l55 0
-67 -68z m3382 10 c30 -31 28 -52 -2 -22 -11 10 -28 25 -39 33 -15 11 -14 8 4
-13 33 -36 12 -35 -23 1 l-27 29 29 1 c20 0 38 -9 58 -29z m34 -4 c19 -19 29
-35 24 -35 -6 0 -25 16 -44 35 -19 19 -29 35 -24 35 6 0 25 -16 44 -35z m40 0
c19 -19 29 -35 24 -35 -6 0 -25 16 -44 35 -19 19 -29 35 -24 35 6 0 25 -16 44
-35z m16 24 c5 -8 9 -8 14 1 5 9 19 2 46 -24 28 -26 34 -36 22 -36 -10 0 -25
11 -34 25 -9 14 -21 25 -27 25 -6 0 0 -11 13 -25 13 -14 19 -25 14 -25 -6 0
-25 16 -44 35 -19 19 -29 35 -23 35 7 0 15 -5 19 -11z m-2978 -6 c-10 -2 -28
-2 -40 0 -13 2 -5 4 17 4 22 1 32 -1 23 -4z m-619 -61 c-16 -19 -13 -17 13 7
27 24 40 31 52 24 14 -8 12 -13 -14 -38 -35 -33 -40 -23 -8 14 17 20 14 19
-12 -5 -19 -17 -46 -31 -59 -32 -23 -1 -23 0 9 33 39 40 55 38 19 -3z m1941 9
c87 -27 209 -109 265 -178 57 -70 110 -179 126 -261 22 -116 0 -275 -54 -379
-9 -17 -32 -51 -52 -77 -20 -26 -33 -52 -29 -58 4 -6 3 -8 -2 -5 -6 3 -32 -12
-59 -34 -109 -87 -232 -132 -365 -132 -101 -1 -173 15 -255 55 -159 78 -266
208 -310 379 -23 87 -16 250 14 334 65 182 230 327 421 370 83 19 214 13 300
-14z m-2180 -46 l-54 -55 -68 0 c-39 0 -68 -4 -68 -10 0 -5 -9 -10 -20 -10
-15 0 -20 7 -20 25 0 18 5 25 20 25 11 0 20 -4 20 -10 0 -6 29 -10 68 -10 l68
0 49 50 c27 28 52 50 54 50 3 0 -19 -25 -49 -55z m643 9 c-1 -11 0 -13 3 -6 8
18 64 16 64 -3 0 -12 -13 -15 -55 -15 -47 0 -55 3 -55 18 0 24 7 31 28 27 10
-1 16 -10 15 -21z m3123 15 c5 -8 9 -8 14 1 5 8 19 2 46 -21 31 -26 34 -28 15
-6 -20 22 -21 27 -8 27 9 0 24 -11 33 -25 9 -14 21 -25 27 -25 6 0 0 11 -13
25 -13 14 -19 25 -14 25 6 0 23 -13 38 -29 l28 -29 -45 2 c-31 1 -54 8 -71 24
-35 30 -45 28 -16 -3 13 -14 19 -25 14 -25 -6 0 -25 16 -44 35 -19 19 -29 35
-23 35 7 0 15 -5 19 -11z m179 -29 c16 -16 26 -32 24 -35 -3 -2 -21 11 -39 30
-19 19 -29 35 -24 35 6 0 23 -13 39 -30z m49 -10 c32 -36 42 -50 33 -50 -2 0
-23 20 -47 45 -24 25 -39 45 -33 45 6 0 27 -18 47 -40z m-4274 -75 c0 -87 -3
-105 -15 -105 -12 0 -15 17 -15 89 0 49 -3 96 -6 105 -4 12 0 16 15 16 20 0
21 -5 21 -105z m4620 0 c0 -98 -1 -105 -20 -105 -19 0 -20 7 -20 105 0 98 1
105 20 105 19 0 20 -7 20 -105z m-4142 78 c-16 -2 -40 -2 -55 0 -16 2 -3 4 27
4 30 0 43 -2 28 -4z m59 1 c-3 -3 -12 -4 -19 -1 -8 3 -5 6 6 6 11 1 17 -2 13
-5z m2816 -11 c-7 -2 -21 -2 -30 0 -10 3 -4 5 12 5 17 0 24 -2 18 -5z m-98
-20 c-16 -8 -43 -27 -60 -42 -27 -23 -28 -24 -10 -2 22 26 74 61 90 61 6 -1
-3 -8 -20 -17z m171 1 c18 -14 18 -14 -6 -3 -31 14 -36 19 -24 19 6 0 19 -7
30 -16z m1101 -5 c2 -23 -21 -36 -40 -21 -6 5 -21 12 -32 15 -18 4 -18 5 3 6
12 0 22 6 22 11 0 6 10 10 23 10 16 0 23 -6 24 -21z m-3657 -2 c-8 -8 -40 -36
-71 -63 -49 -43 -48 -41 9 14 35 34 67 62 70 62 4 0 0 -6 -8 -13z m2483 6 c-7
-2 -19 -2 -25 0 -7 3 -2 5 12 5 14 0 19 -2 13 -5z m345 0 c-21 -2 -55 -2 -75
0 -21 2 -4 4 37 4 41 0 58 -2 38 -4z m-280 -17 c15 -8 36 -25 47 -37 l20 -24
-25 21 c-14 12 -38 29 -55 37 -16 9 -26 16 -22 17 4 0 20 -6 35 -14z m62 -21
c13 -14 21 -25 18 -25 -2 0 -15 11 -28 25 -13 14 -21 25 -18 25 2 0 15 -11 28
-25z m310 -10 c19 -19 32 -35 29 -35 -3 0 -20 16 -39 35 -19 19 -32 35 -29 35
3 0 20 -16 39 -35z m-572 -2 c-14 -16 -30 -37 -36 -48 -6 -11 -12 -15 -12 -8
0 13 57 83 68 83 3 0 -6 -12 -20 -27z m196 -1 c60 -35 83 -124 48 -191 -23
-47 -61 -72 -113 -78 -161 -16 -223 210 -76 278 47 22 93 19 141 -9z m84 -57
c-3 -3 -9 2 -12 12 -6 14 -5 15 5 6 7 -7 10 -15 7 -18z m357 -5 c10 -11 16
-20 13 -20 -3 0 -13 9 -23 20 -10 11 -16 20 -13 20 3 0 13 -9 23 -20z m-3655
3 c-69 -3 -99 -8 -112 -20 -10 -9 -18 -13 -18 -8 0 24 39 34 130 33 l95 -2
-95 -3z m4288 -9 c19 -13 22 -23 20 -72 l-2 -57 -3 55 c-2 30 -9 60 -14 65 -5
6 -56 13 -112 16 l-102 5 95 2 c73 2 101 -2 118 -14z m-961 -16 c-3 -8 -6 -5
-6 6 -1 11 2 17 5 13 3 -3 4 -12 1 -19z m-3247 -21 c0 -46 -38 -67 -124 -67
l-66 0 0 38 c0 55 12 62 107 62 l83 0 0 -33z m3227 11 c-3 -8 -6 -5 -6 6 -1
11 2 17 5 13 3 -3 4 -12 1 -19z m957 16 c11 -4 16 -19 16 -50 l0 -44 -60 0
c-84 0 -120 20 -120 65 l0 35 74 0 c41 0 81 -3 90 -6z m-957 -86 c-3 -7 -5 -2
-5 12 0 14 2 19 5 13 2 -7 2 -19 0 -25z m20 -10 c-3 -8 -6 -5 -6 6 -1 11 2 17
5 13 3 -3 4 -12 1 -19z m-328 -83 c14 -17 9 -14 -11 7 -21 20 -38 43 -38 50 0
7 6 4 12 -7 6 -11 22 -34 37 -50z m261 12 l-34 -32 30 36 c16 20 31 34 33 32
3 -2 -10 -18 -29 -36z m-244 1 l29 -33 -32 29 c-31 28 -38 36 -30 36 2 0 16
-15 33 -32z m284 9 c0 -2 -15 -16 -32 -33 l-33 -29 29 33 c28 30 36 37 36 29z
m843 -4 c-7 -2 -19 -2 -25 0 -7 3 -2 5 12 5 14 0 19 -2 13 -5z m74 1 c-3 -3
-12 -4 -19 -1 -8 3 -5 6 6 6 11 1 17 -2 13 -5z m-4179 -31 c-27 -2 -69 -2 -95
0 -27 2 -5 3 47 3 52 0 74 -1 48 -3z m4195 0 c-23 -2 -64 -2 -90 0 -26 2 -7 3
42 3 50 0 71 -1 48 -3z m77 -53 l0 -60 -82 2 -83 2 78 3 77 4 0 54 c0 30 2 55
5 55 3 0 5 -27 5 -60z m-4272 23 c-26 -2 -71 -2 -100 0 -29 2 -8 3 47 3 55 0
79 -1 53 -3z m3120 0 c-10 -2 -28 -2 -40 0 -13 2 -5 4 17 4 22 1 32 -1 23 -4z
m1080 0 c-27 -2 -69 -2 -95 0 -27 2 -5 3 47 3 52 0 74 -1 48 -3z m-4178 -33
c-30 -23 -71 -33 -125 -28 -33 2 -41 7 -43 26 -3 22 -1 22 95 22 l98 0 -25
-20z m3093 13 c-13 -2 -33 -2 -45 0 -13 2 -3 4 22 4 25 0 35 -2 23 -4z m1127
-18 c0 -24 -3 -25 -55 -25 -52 0 -125 24 -125 42 0 4 41 8 90 8 89 0 90 0 90
-25z m-923 -1 c-3 -3 -12 -4 -19 -1 -8 3 -5 6 6 6 11 1 17 -2 13 -5z m48 -5
c11 -16 1 -19 -13 -3 -7 8 -8 14 -3 14 5 0 13 -5 16 -11z m50 1 c4 -6 -1 -7
-11 -3 -14 5 -16 3 -10 -13 5 -14 4 -16 -5 -7 -12 12 -5 33 11 33 5 0 12 -4
15 -10z m45 -13 c0 -7 -4 -6 -10 3 -8 12 -10 12 -10 1 0 -8 -3 -12 -6 -8 -9 9
6 28 17 22 5 -4 9 -12 9 -18z m47 17 c-3 -3 -12 -4 -19 -1 -8 3 -5 6 6 6 11 1
17 -2 13 -5z m98 -4 c3 -6 -1 -7 -9 -4 -17 7 -22 -11 -6 -19 6 -3 5 -4 -2 -3
-19 4 -22 36 -4 36 8 0 18 -4 21 -10z m45 -13 c0 -7 -4 -6 -10 3 -8 12 -10 12
-10 1 0 -8 -3 -12 -6 -8 -9 9 6 28 17 22 5 -4 9 -12 9 -18z m-140 -3 c0 -8
-19 -13 -24 -6 -3 5 1 9 9 9 8 0 15 -2 15 -3z m-3562 -21 c-21 -2 -57 -2 -80
0 -24 2 -7 4 37 4 44 0 63 -2 43 -4z m1030 -10 c-158 -2 -419 -2 -580 0 -161
1 -32 2 287 2 319 0 451 -1 293 -2z m1985 -10 c-23 -2 -64 -2 -90 0 -26 2 -7
3 42 3 50 0 71 -1 48 -3z m-3003 -30 c-71 -3 -99 -8 -115 -21 -20 -17 -20 -17
-1 6 18 20 27 22 115 20 l96 -2 -95 -3z m282 -25 c-9 -9 -12 -7 -12 12 0 19 3
21 12 12 9 -9 9 -15 0 -24z m270 0 c-9 -9 -12 -7 -12 12 0 19 3 21 12 12 9 -9
9 -15 0 -24z m210 0 c-9 -9 -12 -7 -12 12 0 19 3 21 12 12 9 -9 9 -15 0 -24z
m270 0 c-9 -9 -12 -7 -12 12 0 19 3 21 12 12 9 -9 9 -15 0 -24z m70 0 c-9 -9
-12 -7 -12 12 0 19 3 21 12 12 9 -9 9 -15 0 -24z m140 0 c-9 -9 -12 -7 -12 12
0 19 3 21 12 12 9 -9 9 -15 0 -24z m3031 25 c3 -5 -25 -7 -61 -5 -116 5 -130
9 -35 10 50 1 94 -1 96 -5z m-4053 -12 c0 -6 -4 -13 -10 -16 -5 -3 -10 1 -10
9 0 9 5 16 10 16 6 0 10 -4 10 -9z m135 0 c3 -5 1 -12 -5 -16 -5 -3 -10 1 -10
9 0 18 6 21 15 7z m70 0 c3 -5 1 -12 -5 -16 -5 -3 -10 1 -10 9 0 18 6 21 15 7z
m65 0 c0 -6 -4 -12 -8 -15 -5 -3 -9 1 -9 9 0 8 4 15 9 15 4 0 8 -4 8 -9z m140
0 c0 -6 -4 -13 -10 -16 -5 -3 -10 1 -10 9 0 9 5 16 10 16 6 0 10 -4 10 -9z
m70 0 c0 -6 -4 -13 -10 -16 -5 -3 -10 1 -10 9 0 9 5 16 10 16 6 0 10 -4 10 -9z
m135 0 c3 -5 1 -12 -5 -16 -5 -3 -10 1 -10 9 0 18 6 21 15 7z m70 0 c3 -5 1
-12 -5 -16 -5 -3 -10 1 -10 9 0 18 6 21 15 7z m65 0 c0 -6 -4 -12 -8 -15 -5
-3 -9 1 -9 9 0 8 4 15 9 15 4 0 8 -4 8 -9z m210 0 c0 -6 -4 -13 -10 -16 -5 -3
-10 1 -10 9 0 9 5 16 10 16 6 0 10 -4 10 -9z m120 0 c0 -6 -4 -13 -10 -16 -5
-3 -10 1 -10 9 0 9 5 16 10 16 6 0 10 -4 10 -9z m-1220 -34 c0 -46 -38 -67
-124 -67 l-66 0 0 38 c0 55 12 62 107 62 l83 0 0 -33z m4162 22 c-28 -11 -26
-44 3 -44 14 0 21 8 23 24 6 38 19 6 14 -34 l-4 -35 -60 0 c-82 0 -118 20
-118 65 l0 35 83 -1 c61 0 76 -3 59 -10z m66 -14 c-3 -3 -9 2 -12 12 -6 14 -5
15 5 6 7 -7 10 -15 7 -18z m-471 -157 c-2 -29 -3 -6 -3 52 0 58 1 81 3 53 2
-29 2 -77 0 -105z m470 80 c-2 -13 -4 -3 -4 22 0 25 2 35 4 23 2 -13 2 -33 0
-45z m-519 -10 c3 -47 3 -48 -27 -48 -16 0 -31 -6 -34 -12 -3 -10 -9 -10 -26
0 -11 6 -30 12 -41 12 -17 0 -20 7 -20 43 0 24 3 47 7 51 4 4 37 6 73 4 l65
-3 3 -47z m-2628 -18 c0 -5 6 -10 13 -10 8 0 34 -13 58 -30 24 -16 51 -30 60
-30 12 0 18 -14 22 -57 4 -35 12 -62 22 -69 17 -12 21 -44 5 -44 -16 0 -33
-42 -32 -77 1 -27 -2 -33 -19 -33 -12 0 -33 -8 -47 -18 -43 -30 -93 -52 -118
-52 -13 0 -53 16 -91 35 -37 19 -76 35 -87 35 -15 0 -17 5 -13 27 3 15 -3 48
-13 74 -14 35 -16 49 -7 58 6 6 11 36 11 66 -1 53 0 55 26 55 15 0 35 9 45 20
10 11 36 25 57 32 21 6 38 15 38 20 0 4 16 8 35 8 19 0 35 -4 35 -10z m-1230
-34 c0 -2 -7 -7 -16 -10 -8 -3 -12 -2 -9 4 6 10 25 14 25 6z m68 -3 c-10 -2
-28 -2 -40 0 -13 2 -5 4 17 4 22 1 32 -1 23 -4z m49 1 c-3 -3 -12 -4 -19 -1
-8 3 -5 6 6 6 11 1 17 -2 13 -5z m4086 -1 c-7 -2 -21 -2 -30 0 -10 3 -4 5 12
5 17 0 24 -2 18 -5z m105 0 c-16 -2 -40 -2 -55 0 -16 2 -3 4 27 4 30 0 43 -2
28 -4z m-3930 -16 c7 -8 7 -18 2 -27 -16 -25 -11 -47 11 -53 35 -9 11 -27 -36
-27 -47 0 -71 18 -36 27 23 6 28 32 9 51 -8 8 -8 15 2 27 15 18 34 19 48 2z
m4001 -25 c0 -14 -2 -14 -6 -2 -4 8 -13 21 -22 28 -14 11 -13 11 7 2 12 -6 22
-18 21 -28z m-4266 11 c-23 -2 -64 -2 -90 0 -26 2 -7 3 42 3 50 0 71 -1 48 -3z
m4190 0 c-23 -2 -64 -2 -90 0 -26 2 -7 3 42 3 50 0 71 -1 48 -3z m-444 -18
c10 -11 -10 -16 -78 -20 -55 -2 -71 0 -71 10 0 19 131 28 149 10z m-3751 -12
c-26 -2 -71 -2 -100 0 -29 2 -8 3 47 3 55 0 79 -1 53 -3z m612 -5 c0 -4 -25
-8 -55 -8 -32 0 -55 4 -55 11 0 6 22 9 55 8 30 -1 55 -6 55 -11z m2890 2 c0
-6 -33 -9 -82 -8 l-83 2 80 6 c44 3 81 7 83 8 1 1 2 -2 2 -8z m698 3 c-27 -2
-69 -2 -95 0 -27 2 -5 3 47 3 52 0 74 -1 48 -3z m72 -43 l0 -40 -82 2 -83 2
78 3 77 4 0 34 c0 19 2 35 5 35 3 0 5 -18 5 -40z m-4250 10 c-30 -23 -71 -33
-125 -28 -33 2 -41 7 -43 26 -3 22 -1 22 95 22 l98 0 -25 -20z m656 13 c-11
-11 -46 -14 -46 -3 0 6 12 10 27 10 14 0 23 -3 19 -7z m3564 -16 c0 -21 -5
-24 -52 -26 -51 -2 -128 22 -128 41 0 4 41 8 90 8 87 0 90 -1 90 -23z m-3706
2 c-4 -7 1 -7 16 1 12 6 24 9 28 6 3 -3 -1 -6 -9 -6 -11 0 -11 -2 1 -10 11 -7
4 -10 -27 -10 -32 0 -43 4 -43 15 0 8 9 15 21 15 12 0 17 -4 13 -11z m83 5
c-3 -3 -12 -4 -19 -1 -8 3 -5 6 6 6 11 1 17 -2 13 -5z m2890 -8 c4 -3 -54 -5
-128 -5 -74 1 -118 4 -99 8 43 8 219 6 227 -3z m-44 -33 c-24 -2 -62 -2 -85 0
-24 2 -5 4 42 4 47 0 66 -2 43 -4z m-3703 -111 c0 -90 -3 -109 -15 -109 -12 0
-15 19 -15 109 0 89 3 108 15 108 12 0 15 -19 15 -108z m188 101 c-21 -2 -57
-2 -80 0 -24 2 -7 4 37 4 44 0 63 -2 43 -4z m4432 -104 c0 -100 -2 -110 -17
-107 -16 3 -18 18 -21 111 -3 102 -2 107 18 107 19 0 20 -6 20 -111z m-1460
77 c0 -2 -9 -6 -20 -9 -11 -3 -18 -1 -14 4 5 9 34 13 34 5z m920 -271 l-255
-255 -115 2 -115 2 115 3 116 4 249 249 c138 138 252 250 255 250 3 0 -110
-115 -250 -255z m-3317 238 c3 -5 -23 -7 -56 -5 -111 5 -124 9 -35 10 48 1 89
-1 91 -5z m2297 -68 c-33 -41 -66 -77 -72 -81 -6 -4 19 30 56 74 37 45 70 82
73 82 2 0 -23 -34 -57 -75z m-2872 58 c-10 -2 -26 -2 -35 0 -10 3 -2 5 17 5
19 0 27 -2 18 -5z m59 1 c-3 -3 -12 -4 -19 -1 -8 3 -5 6 6 6 11 1 17 -2 13 -5z
m3778 -144 c-82 -82 -152 -150 -155 -150 -2 0 63 68 145 150 82 83 152 150
155 150 2 0 -63 -67 -145 -150z m-3935 130 c0 -6 32 -11 73 -12 l72 -2 -72 -3
c-40 -2 -73 -8 -73 -13 0 -6 -9 -10 -20 -10 -15 0 -20 7 -20 25 0 18 5 25 20
25 11 0 20 -4 20 -10z m4434 1 c10 -16 -5 -41 -25 -41 -10 0 -19 5 -19 10 0 6
-30 11 -67 12 l-68 2 68 3 c37 2 67 8 67 13 0 13 37 13 44 1z m-4199 -61 c33
-33 57 -60 54 -60 -2 0 -31 27 -64 60 -33 33 -57 60 -54 60 2 0 31 -27 64 -60z
m2816 33 c-11 -16 -34 -44 -51 -63 -17 -19 -10 -7 16 28 46 61 75 89 35 35z
m-2881 -8 c11 -13 10 -14 -4 -9 -9 3 -16 10 -16 15 0 13 6 11 20 -6z m590
-218 c13 -5 13 -6 0 -6 -8 -1 -69 54 -135 122 l-120 122 120 -116 c66 -64 127
-119 135 -122z m2448 206 c-10 -2 -28 -2 -40 0 -13 2 -5 4 17 4 22 1 32 -1 23
-4z m460 0 c-10 -2 -26 -2 -35 0 -10 3 -2 5 17 5 19 0 27 -2 18 -5z m-538 -78
c0 -60 -3 -75 -15 -75 -12 0 -15 14 -15 69 0 63 3 73 28 80 1 1 2 -33 2 -74z
m337 68 c-20 -2 -52 -2 -70 0 -17 2 0 4 38 4 39 0 53 -2 32 -4z m261 -71 c2
-60 0 -72 -13 -72 -12 0 -15 14 -15 76 0 56 3 75 13 72 8 -3 13 -30 15 -76z
m-2953 48 c10 -11 16 -20 13 -20 -3 0 -13 9 -23 20 -10 11 -16 20 -13 20 3 0
13 -9 23 -20z m3419 -5 c-9 -14 -21 -25 -27 -25 -6 0 0 11 13 25 13 14 25 25
27 25 2 0 -4 -11 -13 -25z m-44 -38 c0 -2 -19 -21 -42 -42 l-43 -40 40 43 c36
39 45 47 45 39z m-3305 -25 c-3 -3 -11 0 -18 7 -9 10 -8 11 6 5 10 -3 15 -9
12 -12z m2125 15 c0 -2 -12 -14 -27 -28 l-28 -24 24 28 c23 25 31 32 31 24z
m-2680 -32 c13 -14 21 -25 18 -25 -2 0 -15 11 -28 25 -13 14 -21 25 -18 25 2
0 15 -11 28 -25z m2600 22 c0 -2 -15 -16 -32 -33 l-33 -29 29 33 c28 30 36 37
36 29z m-2566 -117 c-3 -2 -26 18 -52 45 l-47 48 51 -44 c29 -24 50 -46 48
-49z m2884 53 c-10 -2 -28 -2 -40 0 -13 2 -5 4 17 4 22 1 32 -1 23 -4z m460 0
c-10 -2 -26 -2 -35 0 -10 3 -2 5 17 5 19 0 27 -2 18 -5z m-188 -13 c0 -5 -20
-10 -45 -10 -25 0 -45 5 -45 10 0 6 20 10 45 10 25 0 45 -4 45 -10z m563 -12
c-3 -7 -47 -51 -97 -98 l-91 -85 95 98 c52 53 96 97 97 97 1 0 0 -6 -4 -12z
m-3166 -25 c-20 -2 -52 -2 -70 0 -17 2 0 4 38 4 39 0 53 -2 32 -4z m136 0
c-18 -2 -48 -2 -65 0 -18 2 -4 4 32 4 36 0 50 -2 33 -4z m155 0 c-21 -2 -57
-2 -80 0 -24 2 -7 4 37 4 44 0 63 -2 43 -4z m115 0 c-13 -2 -35 -2 -50 0 -16
2 -5 4 22 4 28 0 40 -2 28 -4z m120 0 c-18 -2 -48 -2 -65 0 -18 2 -4 4 32 4
36 0 50 -2 33 -4z m217 -60 l65 -68 -65 62 c-63 60 -67 62 -125 66 l-60 3 60
2 61 2 64 -67z m-800 32 c0 -11 -11 -15 -40 -15 -29 0 -40 4 -40 15 0 11 11
15 40 15 29 0 40 -4 40 -15z m90 0 c0 -10 -11 -15 -35 -15 -24 0 -35 5 -35 15
0 10 11 15 35 15 24 0 35 -5 35 -15z m70 0 c0 -10 -10 -15 -30 -15 -20 0 -30
5 -30 15 0 10 10 15 30 15 20 0 30 -5 30 -15z m60 0 c0 -8 -9 -15 -20 -15 -11
0 -20 7 -20 15 0 8 9 15 20 15 11 0 20 -7 20 -15z m225 -25 c24 -25 33 -40 24
-40 -8 0 -33 18 -54 40 -24 25 -33 40 -24 40 8 0 33 -18 54 -40z m40 0 c21
-22 35 -40 30 -40 -11 0 -85 65 -85 74 0 15 19 3 55 -34z m47 3 c42 -41 52
-39 13 3 -41 44 -18 42 26 -2 l40 -40 -35 -1 c-27 -1 -42 7 -72 38 -49 50 -23
52 28 2z m93 -3 c24 -25 33 -40 24 -40 -8 0 -33 18 -54 40 -24 25 -33 40 -24
40 8 0 33 -18 54 -40z m40 0 c23 -23 33 -40 25 -40 -8 0 -33 18 -54 40 -24 24
-34 40 -25 40 8 0 33 -18 54 -40z m46 0 c26 -24 38 -40 29 -40 -9 0 -34 18
-55 40 -51 52 -32 52 26 0z m44 0 c22 -22 33 -40 25 -40 -15 0 -80 58 -80 72
0 17 17 7 55 -32z m-1078 -112 c73 -72 131 -133 130 -134 -2 -2 -64 57 -139
131 -75 74 -134 135 -131 135 4 0 66 -59 140 -132z m-67 122 c0 -5 -2 -10 -4
-10 -3 0 -8 5 -11 10 -3 6 -1 10 4 10 6 0 11 -4 11 -10z m1690 -95 c22 -23 30
-25 114 -25 84 0 92 2 120 28 l31 27 -29 -32 c-29 -33 -31 -33 -121 -33 -85 0
-93 2 -115 25 -22 23 -30 25 -121 25 -74 0 -99 -4 -109 -15 -9 -11 -34 -15
-99 -15 -56 0 -92 -5 -101 -12 -12 -11 -12 -10 -1 5 11 14 29 17 101 17 66 0
91 4 100 15 10 11 35 15 109 15 91 0 99 -2 121 -25z m611 8 c13 -17 13 -17 -6
-3 -11 8 -22 16 -24 17 -2 2 0 3 6 3 6 0 17 -8 24 -17z m346 -75 c-2 -18 -4
-4 -4 32 0 36 2 50 4 33 2 -18 2 -48 0 -65z m40 -10 c-2 -18 -4 -4 -4 32 0 36
2 50 4 33 2 -18 2 -48 0 -65z m-60 -5 c-2 -16 -4 -3 -4 27 0 30 2 43 4 28 2
-16 2 -40 0 -55z m40 0 c-2 -16 -4 -3 -4 27 0 30 2 43 4 28 2 -16 2 -40 0 -55z
m40 0 c-2 -16 -4 -3 -4 27 0 30 2 43 4 28 2 -16 2 -40 0 -55z m43 32 c0 -33
-4 -45 -15 -45 -11 0 -15 10 -14 38 l2 37 7 -35 7 -35 2 43 c1 56 11 54 11 -3z
m37 -27 c-2 -13 -4 -3 -4 22 0 25 2 35 4 23 2 -13 2 -33 0 -45z m-2636 21 c13
-26 7 -24 -22 7 -17 19 -19 23 -6 18 10 -3 22 -15 28 -25z m2656 -31 c-2 -13
-4 -3 -4 22 0 25 2 35 4 23 2 -13 2 -33 0 -45z m-40 5 c-3 -10 -5 -2 -5 17 0
19 2 27 5 18 2 -10 2 -26 0 -35z m633 34 c0 -2 -19 -21 -42 -42 l-43 -40 40
43 c36 39 45 47 45 39z m-2020 -81 c0 -40 -4 -55 -16 -60 -9 -3 -63 -6 -120
-6 l-104 0 0 28 c1 78 20 90 148 91 l92 1 0 -54z m350 6 c0 -26 -5 -53 -12
-60 -8 -8 -49 -12 -120 -12 l-108 0 0 44 c0 65 20 76 142 76 l98 0 0 -48z
m320 6 c0 -69 -16 -78 -137 -78 l-103 0 0 48 c0 26 5 53 12 60 8 8 49 12 120
12 l108 0 0 -42z m320 0 c0 -69 -16 -78 -137 -78 l-103 0 0 48 c0 26 5 53 12
60 8 8 49 12 120 12 l108 0 0 -42z m-1380 -63 c30 -30 52 -55 49 -55 -2 0 -29
25 -59 55 -30 30 -52 55 -49 55 2 0 29 -25 59 -55z m1620 52 c0 -1 -30 -32
-67 -67 l-68 -65 65 68 c60 62 70 72 70 64z m-1890 -26 c0 -3 -13 -13 -29 -23
-28 -15 -31 -15 -45 1 -22 25 -21 26 29 27 25 0 45 -2 45 -5z m150 -1 c0 -3
-13 -12 -29 -22 -28 -15 -31 -15 -45 1 -23 25 -21 26 29 26 25 0 45 -2 45 -5z
m1880 1 c0 -3 -7 -12 -16 -22 -14 -16 -17 -16 -45 -1 -40 23 -37 29 16 28 25
-1 45 -3 45 -5z m150 -2 c0 -3 -8 -13 -18 -22 -16 -15 -20 -14 -47 7 l-29 23
47 -1 c26 0 47 -3 47 -7z m-2125 -19 c18 -20 17 -20 -36 -20 l-54 0 30 20 c37
25 38 25 60 0z m150 0 c18 -20 17 -20 -36 -20 l-54 0 30 20 c37 25 38 25 60 0z
m1740 0 l30 -20 -54 0 c-53 0 -54 0 -36 20 22 25 23 25 60 0z m147 0 l33 -20
-54 0 c-53 0 -54 0 -36 20 22 24 18 24 57 0z m-1699 -77 c-13 -2 -33 -2 -45 0
-13 2 -3 4 22 4 25 0 35 -2 23 -4z m210 0 c-24 -2 -62 -2 -85 0 -24 2 -5 4 42
4 47 0 66 -2 43 -4z m105 0 c-10 -2 -28 -2 -40 0 -13 2 -5 4 17 4 22 1 32 -1
23 -4z m200 0 c-32 -2 -84 -2 -115 0 -32 2 -6 3 57 3 63 0 89 -1 58 -3z m209
1 c-3 -3 -12 -4 -19 -1 -8 3 -5 6 6 6 11 1 17 -2 13 -5z m146 -1 c-23 -2 -64
-2 -90 0 -26 2 -7 3 42 3 50 0 71 -1 48 -3z m150 0 c-18 -2 -48 -2 -65 0 -18
2 -4 4 32 4 36 0 50 -2 33 -4z m270 0 c-40 -2 -107 -2 -150 0 -43 1 -10 3 72
3 83 0 118 -2 78 -3z m-525 -56 l22 -32 -80 -3 c-44 -2 -116 -2 -160 0 l-79 3
20 33 21 32 116 0 117 0 23 -33z"/>
<path d="M1169 2143 c-13 -16 -12 -17 4 -4 9 7 17 15 17 17 0 8 -8 3 -21 -13z"/>
<path d="M1184 2128 l-19 -23 23 19 c21 18 27 26 19 26 -2 0 -12 -10 -23 -22z"/>
<path d="M2685 1826 c-286 -71 -470 -345 -426 -631 8 -46 27 -101 56 -162 74
-150 199 -252 361 -293 194 -50 387 3 529 145 115 115 165 234 165 395 0 161
-50 283 -164 396 -138 137 -339 195 -521 150z m157 -89 c-2 -32 1 -39 23 -47
34 -13 43 -7 51 35 6 35 18 42 43 26 11 -7 11 -15 1 -45 -14 -43 -14 -42 22
-51 23 -6 29 -2 43 24 17 33 42 41 51 16 4 -8 -1 -26 -10 -40 -21 -32 -20 -42
5 -56 18 -9 26 -6 50 17 27 26 30 27 46 11 16 -16 15 -18 -10 -45 -32 -33 -33
-39 -11 -64 16 -17 18 -17 51 4 29 17 37 18 44 7 14 -22 10 -37 -10 -44 -29
-9 -43 -31 -36 -56 6 -19 12 -20 50 -15 34 6 44 4 49 -9 9 -24 1 -32 -39 -39
-31 -6 -35 -11 -35 -36 0 -29 2 -30 45 -30 41 0 45 -2 45 -25 0 -23 -4 -25
-45 -25 -32 0 -45 -4 -45 -14 0 -8 -3 -21 -6 -29 -4 -11 5 -17 33 -24 29 -7
39 -14 41 -32 4 -23 2 -23 -42 -17 -40 6 -46 5 -57 -15 -12 -23 -11 -25 44
-62 16 -10 16 -15 4 -31 -13 -17 -14 -17 -47 3 -32 19 -36 19 -52 4 -24 -22
-23 -32 9 -65 25 -27 26 -29 10 -45 -16 -16 -19 -15 -45 17 l-29 34 -24 -19
-25 -19 20 -38 c18 -33 19 -40 6 -48 -24 -15 -29 -12 -47 26 -15 30 -21 34
-43 29 -34 -9 -34 -9 -22 -54 11 -44 8 -51 -19 -51 -13 0 -22 12 -29 40 -11
42 -12 43 -47 34 -19 -5 -23 -13 -23 -45 0 -35 -3 -39 -24 -39 -22 0 -25 5
-28 43 -3 37 -6 42 -29 45 -23 3 -28 -2 -36 -34 -9 -40 -20 -49 -42 -35 -12 8
-13 16 -4 45 11 34 10 37 -17 51 -27 14 -28 13 -46 -20 -19 -36 -29 -41 -53
-26 -11 7 -10 16 9 46 l23 38 -24 18 c-24 18 -24 18 -54 -11 -29 -28 -32 -29
-48 -13 -16 16 -15 19 15 50 l32 33 -20 21 -21 20 -33 -20 -34 -20 -14 20
c-16 23 -17 21 26 43 34 18 38 27 22 56 -8 16 -15 17 -46 8 -28 -7 -39 -7 -45
4 -17 25 -9 36 31 43 36 6 40 10 40 36 0 28 -2 29 -45 29 -41 0 -45 2 -45 24
0 22 5 25 43 28 39 3 42 5 42 33 0 25 -5 30 -36 38 -31 7 -35 11 -31 33 3 17
9 23 21 20 61 -18 67 -18 79 9 11 24 9 27 -23 46 -38 23 -40 26 -25 49 8 13
13 13 41 -2 40 -23 51 -23 67 3 12 18 10 24 -12 46 -30 29 -31 36 -13 52 11 8
19 5 37 -14 27 -29 39 -31 65 -11 18 13 18 14 -3 50 l-21 36 20 11 c12 6 22 9
23 7 1 -2 12 -17 25 -35 20 -29 24 -31 47 -21 19 9 24 17 20 32 -19 68 -19 66
7 66 21 0 27 -6 34 -37 5 -21 12 -37 16 -35 4 1 18 2 32 2 23 0 25 4 25 46 0
41 2 45 23 42 19 -3 22 -8 19 -41z"/>
<path d="M2725 1667 c-119 -31 -214 -108 -267 -215 -31 -62 -33 -73 -33 -172
0 -99 2 -109 34 -172 150 -299 571 -293 714 9 28 61 32 78 32 158 0 105 -20
169 -75 242 -93 124 -263 186 -405 150z m238 -80 c61 -30 124 -93 159 -159 20
-37 23 -57 23 -148 0 -97 -2 -109 -29 -158 -37 -66 -92 -116 -165 -151 -47
-22 -69 -26 -141 -26 -103 1 -156 22 -228 89 -132 124 -144 334 -26 465 82 91
156 123 275 118 58 -3 90 -10 132 -30z"/>
<path d="M2713 1596 c-90 -29 -157 -90 -199 -180 -13 -28 -24 -63 -24 -78 l0
-28 75 0 75 0 20 40 c11 21 20 42 20 45 0 3 -22 5 -50 5 -27 0 -50 3 -50 6 0
22 70 87 118 111 101 50 223 31 300 -46 18 -18 37 -41 42 -52 10 -18 7 -19
-40 -19 -29 0 -50 -3 -48 -7 2 -5 10 -25 18 -45 l14 -38 79 0 80 0 -6 36 c-15
92 -86 183 -179 230 -64 33 -178 42 -245 20z"/>
<path d="M2715 1384 c-32 -32 -47 -76 -42 -121 8 -70 14 -73 144 -73 l114 0
15 35 c7 19 14 47 14 62 0 28 -33 91 -54 105 -6 4 -48 8 -93 8 -61 0 -85 -4
-98 -16z m143 -16 c18 -18 15 -118 -5 -140 -20 -22 -56 -23 -77 -3 -30 30 -32
107 -4 143 13 15 70 16 86 0z"/>
<path d="M2486 1262 c-2 -1 0 -23 5 -47 18 -99 90 -188 188 -234 76 -35 191
-37 267 -3 93 42 181 155 191 245 l5 42 -77 0 -77 0 -13 -38 -13 -37 49 0 c27
0 49 -2 49 -5 0 -39 -90 -129 -149 -150 -119 -42 -239 -5 -319 99 -34 45 -29
56 27 56 l49 0 -13 36 -12 36 -77 2 c-43 0 -79 0 -80 -2z"/>
<path d="M3820 1687 c-44 -15 -80 -68 -80 -117 0 -47 35 -99 78 -117 l32 -13
0 75 0 75 70 0 c39 0 70 2 70 5 0 4 -7 19 -14 34 -28 54 -95 79 -156 58z"/>
<path d="M3870 1504 c0 -63 1 -65 23 -58 37 12 67 35 83 65 26 51 20 59 -46
59 l-60 0 0 -66z"/>
<path d="M636 1601 c-9 -13 4 -41 18 -41 18 0 35 21 29 36 -6 16 -39 19 -47 5z"/>
<path d="M4954 1595 c-4 -9 -2 -21 4 -27 15 -15 44 -1 40 19 -4 23 -36 29 -44
8z"/>
<path d="M638 1228 c-7 -18 2 -38 16 -38 18 0 35 21 29 36 -6 17 -39 18 -45 2z"/>
<path d="M1758 1069 c-28 -14 -38 -26 -38 -44 0 -16 -6 -25 -15 -25 -15 0 -35
-37 -35 -66 0 -8 7 -14 15 -14 19 0 20 -29 1 -44 -19 -15 -3 -56 24 -63 11 -3
20 -14 20 -24 0 -29 67 -58 103 -45 20 7 33 7 45 -1 24 -15 92 20 92 47 0 11
7 20 15 20 22 0 51 48 36 63 -14 14 -15 47 -1 47 11 0 13 39 4 64 -3 9 -15 16
-25 16 -14 0 -19 7 -19 25 0 60 -140 88 -222 44z m112 -30 c0 -7 10 -9 25 -5
21 5 27 2 35 -19 5 -14 16 -25 25 -25 15 0 19 -10 16 -42 -1 -10 3 -18 8 -18
17 0 13 -37 -4 -43 -8 -4 -17 -2 -20 3 -8 13 -45 13 -45 0 0 -5 7 -11 15 -11
8 -1 21 -2 27 -3 22 -2 22 -37 0 -43 -11 -3 -23 -14 -25 -25 -4 -15 -11 -18
-27 -13 -15 5 -25 1 -34 -10 -12 -16 -13 -16 -29 0 -9 9 -25 14 -34 11 -22 -7
-38 4 -38 24 0 8 -5 15 -12 15 -7 0 -18 6 -25 14 -10 11 -10 14 0 18 17 7 15
33 -3 33 -8 0 -15 7 -15 15 0 8 7 15 15 15 11 0 14 9 13 32 -3 27 1 33 17 33
12 0 19 6 17 14 -4 18 18 32 41 25 9 -3 17 -1 17 5 0 6 9 11 20 11 11 0 20 -5
20 -11z"/>
<path d="M1816 1011 c-3 -4 1 -17 9 -27 14 -18 14 -18 15 9 0 26 -13 36 -24
18z"/>
<path d="M1866 1013 c-9 -10 -7 -43 3 -43 11 0 21 39 11 45 -4 2 -10 2 -14 -2z"/>
<path d="M1770 982 c0 -4 10 -13 21 -21 19 -11 21 -11 15 4 -3 9 -6 19 -6 21
0 2 -7 4 -15 4 -8 0 -15 -3 -15 -8z"/>
<path d="M1901 977 c-6 -8 -8 -17 -4 -20 7 -8 33 11 33 24 0 13 -16 11 -29 -4z"/>
<path d="M1750 941 c0 -11 31 -24 39 -16 3 3 -1 10 -9 15 -19 12 -30 12 -30 1z"/>
<path d="M1923 943 c-7 -2 -13 -9 -13 -15 0 -12 41 -6 41 7 1 12 -11 15 -28 8z"/>
<path d="M1750 890 c0 -5 6 -10 14 -10 8 0 18 5 21 10 3 6 -3 10 -14 10 -12 0
-21 -4 -21 -10z"/>
<path d="M1775 859 c-4 -6 -4 -13 -1 -16 8 -8 36 5 36 17 0 13 -27 13 -35 -1z"/>
<path d="M1890 861 c0 -13 26 -32 33 -24 8 7 -11 33 -24 33 -5 0 -9 -4 -9 -9z"/>
<path d="M1817 836 c-6 -16 2 -28 14 -20 12 7 11 34 0 34 -5 0 -11 -6 -14 -14z"/>
<path d="M1860 830 c0 -11 5 -20 10 -20 6 0 10 9 10 20 0 11 -4 20 -10 20 -5
0 -10 -9 -10 -20z"/>
<path d="M2230 325 c0 -25 1 -25 85 -25 84 0 85 0 85 25 0 25 -1 25 -85 25
-84 0 -85 0 -85 -25z"/>
<path d="M2570 325 c0 -25 1 -25 90 -25 89 0 90 0 90 25 0 25 -1 25 -90 25
-89 0 -90 0 -90 -25z"/>
<path d="M2897 354 c-4 -4 -7 -16 -7 -26 0 -16 9 -18 91 -18 88 0 90 1 87 23
-3 20 -9 22 -83 25 -45 1 -84 0 -88 -4z"/>
<path d="M3217 354 c-4 -4 -7 -16 -7 -26 0 -16 9 -18 91 -18 88 0 90 1 87 23
-3 20 -9 22 -83 25 -45 1 -84 0 -88 -4z"/>
</g>
</svg>
